<svg xmlns="http://www.w3.org/2000/svg" viewBox="0 0 640.01 691.72"><defs><style>.cls-1{fill:#fdfdfd;}</style></defs><g id="Capa_1" data-name="Capa 1"><path class="cls-1" d="M353,412.44V791.16c17.75-14.33,34.27-27.51,50.58-40.93,4.93-4.05,3.25-10.12,3.25-15.42.09-59.59.06-119.18.06-181,12.52,12,18.6,26.31,28.24,37.77C450.06,609.36,454.73,629,453.7,652c-1.57,35-.55,70.05-.3,105.09.06,7.32-1.73,12.47-7.8,17.4-39.47,32-78.43,64.66-117.88,96.69-6.19,5-10.88,12.38-19.3,14.65-4.3-3.31-2.44-7.74-2.44-11.45q-.17-248.45-.13-496.88a54.58,54.58,0,0,1,2.51-17.43c9.36-28.26,36.66-35.29,57.42-13.9,15.89,16.38,26.52,36.82,39,55.77q97,147.54,193.31,295.5c20.87,31.95,41.76,63.89,62.39,96,21.87,34,47.55,37.34,77.65,10.66,17.31-15.34,35.27-30,53.63-44.06,14.79-11.31,22.22-24.51,22.16-43.92q-.76-253.89-.18-507.8c0-4.66-2.85-11.31,2.26-13.69,4.82-2.25,8.94,3.51,12.66,6.42,20,15.73,31.37,36.09,31.37,62.07q0,232.74,0,465.48c0,24.83-10.44,44.33-29.5,60-25.22,20.75-50.45,41.55-74.77,63.33-36.7,32.86-92.27,29.52-121.75-15Q565.52,733.49,497.41,629.8,428.29,525.15,359,420.61C357.78,418.79,356.41,417.09,353,412.44Z" transform="translate(-219.99 -194.14)"/><path class="cls-1" d="M727,667.56V288.84c-17.75,14.33-34.27,27.51-50.58,40.93-4.93,4.05-3.25,10.12-3.25,15.42-.09,59.59-.06,119.18-.06,181-12.52-12-18.6-26.31-28.24-37.77C629.94,470.64,625.27,451,626.3,428c1.57-35,.55-70.05.3-105.09-.06-7.32,1.73-12.47,7.8-17.4,39.47-32,78.43-64.66,117.88-96.69,6.19-5,10.88-12.38,19.3-14.65,4.3,3.31,2.44,7.74,2.44,11.45q.16,248.45.13,496.88a54.58,54.58,0,0,1-2.51,17.43c-9.36,28.26-36.66,35.29-57.42,13.9-15.89-16.38-26.52-36.82-39-55.77q-97-147.54-193.31-295.5c-20.87-31.95-41.76-63.89-62.39-96-21.87-34-47.55-37.34-77.65-10.66-17.31,15.34-35.27,30-53.63,44.06-14.79,11.31-22.22,24.51-22.16,43.92q.76,253.89.18,507.8c0,4.66,2.85,11.31-2.26,13.69-4.82,2.25-8.94-3.51-12.66-6.42-20-15.73-31.37-36.09-31.37-62.07q0-232.74,0-465.48c0-24.83,10.44-44.33,29.5-60C274.72,270.61,300,249.81,324.27,228c36.7-32.86,92.27-29.52,121.75,15Q514.48,346.52,582.59,450.2,651.71,554.86,721,659.39C722.22,661.21,723.59,662.91,727,667.56Z" transform="translate(-219.99 -194.14)"/></g></svg>